<svg width="24" height="24" viewBox="0 0 24 24" fill="none" xmlns="http://www.w3.org/2000/svg">
<path d="M12 3.60002C10.8969 3.60002 9.80459 3.8173 8.78545 4.23944C7.76632 4.66158 6.84031 5.28032 6.0603 6.06033C5.28028 6.84034 4.66155 7.76635 4.23941 8.78548C3.81727 9.80462 3.59999 10.8969 3.59999 12C3.59999 13.1031 3.81727 14.1954 4.23941 15.2146C4.66155 16.2337 5.28028 17.1597 6.0603 17.9397C6.84031 18.7197 7.76632 19.3385 8.78545 19.7606C9.80459 20.1828 10.8969 20.4 12 20.4C14.2278 20.4 16.3644 19.515 17.9397 17.9397C19.515 16.3644 20.4 14.2278 20.4 12C20.4 9.77221 19.515 7.63563 17.9397 6.06033C16.3644 4.48502 14.2278 3.60002 12 3.60002ZM2.39999 12C2.39999 9.45395 3.41142 7.01215 5.21177 5.2118C7.01212 3.41145 9.45392 2.40002 12 2.40002C14.5461 2.40002 16.9879 3.41145 18.7882 5.2118C20.5886 7.01215 21.6 9.45395 21.6 12C21.6 14.5461 20.5886 16.9879 18.7882 18.7882C16.9879 20.5886 14.5461 21.6 12 21.6C9.45392 21.6 7.01212 20.5886 5.21177 18.7882C3.41142 16.9879 2.39999 14.5461 2.39999 12Z" fill="#9E00B7"/>
</svg>
